<svg width="200" height="205" viewBox="0 0 200 205" fill="none" xmlns="http://www.w3.org/2000/svg">
<g filter="url(#filter0_d)">
<path d="M110 194.226C103.812 197.799 96.188 197.799 90 194.226L23.3975 155.774C17.2094 152.201 13.3975 145.598 13.3975 138.453L13.3975 61.547C13.3975 54.4017 17.2094 47.7991 23.3975 44.2265L90 5.7735C96.188 2.20085 103.812 2.20085 110 5.7735L176.603 44.2265C182.791 47.7991 186.603 54.4017 186.603 61.547L186.603 138.453C186.603 145.598 182.791 152.201 176.603 155.774L110 194.226Z" fill="#2f2e41"/>
</g>
<path d="M101.512 185.829C100.268 186.553 98.7317 186.553 97.488 185.829L58.1871 162.957C54.6564 160.902 56.114 155.5 60.1991 155.5H138.801C142.886 155.5 144.344 160.902 140.813 162.957L101.512 185.829Z" fill="#dcbb43"/>
<path d="M177 129C177 137.837 169.837 145 161 145L40 145C31.1634 145 24 137.837 24 129V128C24 125.791 25.7909 124 28 124L173 124C175.209 124 177 125.791 177 128V129Z" fill="#dcbb43"/>
<rect x="177" y="116" width="153" height="20" rx="4" transform="rotate(-180 177 116)" fill="#dcbb43"/>
<path d="M107.5 189.896C102.859 192.576 97.141 192.576 92.5 189.896L25.8975 151.443C21.2564 148.764 18.3975 143.812 18.3975 138.453L18.3975 61.547C18.3975 56.188 21.2565 51.2361 25.8975 48.5566L92.5 10.1036C97.141 7.42415 102.859 7.42415 107.5 10.1036L174.103 48.5566C178.744 51.2361 181.603 56.188 181.603 61.547L181.603 138.453C181.603 143.812 178.744 148.764 174.103 151.443L107.5 189.896Z" stroke="#2f2e41" stroke-width="10" stroke-miterlimit="1"/>
<ellipse cx="69" cy="51.5" rx="12" ry="11.5" fill="white"/>
<ellipse cx="130" cy="51.5" rx="12" ry="11.5" fill="white"/>
<line y1="-2.5" x2="41.1096" y2="-2.5" transform="matrix(-0.754082 -0.656781 -0.935123 0.354322 49 40)" stroke="#2f2e41" stroke-width="5"/>
<circle cx="17" cy="8" r="8" fill="#2f2e41"/>
<line y1="-2.5" x2="41.1096" y2="-2.5" transform="matrix(0.754082 -0.656781 0.935123 0.354322 149 40)" stroke="#2f2e41" stroke-width="5"/>
<circle cx="182" cy="8" r="8" fill="#2f2e41"/>
<defs>
<filter id="filter0_d" x="9.39746" y="3.09402" width="181.205" height="201.812" filterUnits="userSpaceOnUse" color-interpolation-filters="sRGB">
<feFlood flood-opacity="0" result="BackgroundImageFix"/>
<feColorMatrix in="SourceAlpha" type="matrix" values="0 0 0 0 0 0 0 0 0 0 0 0 0 0 0 0 0 0 127 0"/>
<feOffset dy="4"/>
<feGaussianBlur stdDeviation="2"/>
<feColorMatrix type="matrix" values="0 0 0 0 0 0 0 0 0 0 0 0 0 0 0 0 0 0 0.25 0"/>
<feBlend mode="normal" in2="BackgroundImageFix" result="effect1_dropShadow"/>
<feBlend mode="normal" in="SourceGraphic" in2="effect1_dropShadow" result="shape"/>
</filter>
</defs>
</svg>
